<svg width="29" height="28" viewBox="0 0 29 28" fill="none" xmlns="http://www.w3.org/2000/svg">
<path fill-rule="evenodd" clip-rule="evenodd" d="M28.8628 14C28.8628 6.26861 22.5942 0 14.8628 0C7.1314 0 0.862793 6.26861 0.862793 14C0.862793 20.9872 5.98167 26.7793 12.6755 27.8308V18.0478H9.11985V14H12.6755V10.9149C12.6755 7.4065 14.7663 5.46724 17.9636 5.46724C19.4953 5.46724 21.0979 5.7409 21.0979 5.7409V9.18632H19.3319C17.5935 9.18632 17.0501 10.2652 17.0501 11.3736V13.9999H20.9325L20.3123 18.0477H17.05V27.8307C23.7438 26.7812 28.8628 20.9891 28.8628 14Z" fill="#CA0000"/>
<path fill-rule="evenodd" clip-rule="evenodd" d="M20.3123 18.0477L20.9325 13.9999H17.0501V11.3736C17.0501 10.2671 17.5915 9.18632 19.3319 9.18632H21.0979V5.7409C21.0979 5.7409 19.4953 5.46724 17.9636 5.46724C14.7663 5.46724 12.6755 7.40456 12.6755 10.9149V14H9.11985V18.0478H12.6755V27.8308C13.3882 27.9428 14.1187 28 14.8629 28C15.6071 28 16.3373 27.9408 17.05 27.8307V18.0477H20.3123Z" fill="white"/>
</svg>
