<svg width="28" height="28" viewBox="0 0 28 28" fill="none" xmlns="http://www.w3.org/2000/svg">
<path fill-rule="evenodd" clip-rule="evenodd" d="M28 14C28 6.26861 21.7314 0 14 0C6.26861 0 0 6.26861 0 14C0 20.9872 5.11888 26.7793 11.8127 27.8308V18.0478H8.25706V14H11.8127V10.9149C11.8127 7.4065 13.9035 5.46724 17.1008 5.46724C18.6325 5.46724 20.2351 5.7409 20.2351 5.7409V9.18632H18.4691C16.7307 9.18632 16.1873 10.2652 16.1873 11.3736V13.9999H20.0697L19.4495 18.0477H16.1872V27.8307C22.881 26.7812 27.9999 20.989 27.9999 13.9999L28 14Z" fill="white"/>
</svg>
