<svg width="29" height="28" viewBox="0 0 29 28" fill="none" xmlns="http://www.w3.org/2000/svg">
<path d="M14.8748 6.8414C14.6286 6.8414 14.3851 6.85396 14.1451 6.87854C13.9052 6.90311 13.6685 6.93953 13.436 6.98734C13.2034 7.03515 12.9749 7.09436 12.751 7.16423L12.0938 7.40553L11.4682 7.70764L10.8778 8.0669L10.3261 8.47952L9.81705 8.94193L9.3542 9.45053L8.94112 10.0016L8.58142 10.5914L8.27913 11.2164C8.18826 11.4301 8.10744 11.6493 8.03747 11.873C7.96751 12.0967 7.90831 12.3251 7.8604 12.5574C7.8125 12.7897 7.77609 13.0261 7.75142 13.2659C7.72675 13.5057 7.71437 13.7489 7.71437 13.9949C7.71437 14.2408 7.72693 14.4841 7.75142 14.7239C7.77577 14.9618 7.81214 15.1982 7.8604 15.4324C7.90831 15.6657 7.96751 15.8931 8.03747 16.1168C8.10744 16.3406 8.18817 16.5596 8.27913 16.7735L8.58142 17.3984L8.94112 17.9882L9.3542 18.5393L9.81705 19.0479L10.3261 19.5103L10.8778 19.923L11.4682 20.2822L12.0938 20.5843L12.751 20.8256L13.436 21.0025C13.6704 21.0507 13.9071 21.0871 14.1451 21.1114C14.3876 21.1361 14.6311 21.1485 14.8748 21.1485C15.1211 21.1485 15.3646 21.1359 15.6045 21.1114C15.8426 21.0871 16.0792 21.0507 16.3137 21.0025L16.9987 20.8256L17.6559 20.5843L18.2814 20.2822L18.8719 19.923L19.4236 19.5103L19.9327 19.0479L20.3956 18.5393L20.8087 17.9882L21.1684 17.3984L21.4707 16.7735L21.7123 16.1168C21.7823 15.8931 21.8415 15.6648 21.8894 15.4324L21.9984 14.7238C22.0229 14.484 22.0355 14.2408 22.0355 13.9948C22.0355 13.7488 22.0229 13.5056 21.9984 13.2658C21.974 13.0279 21.9376 12.7915 21.8894 12.5573C21.8415 12.3241 21.7823 12.0967 21.7123 11.8729L21.4707 11.2163L21.1684 10.5914L20.8087 10.0015L20.3956 9.45045L19.9327 8.94184L19.4236 8.47943L18.8719 8.06681L18.2814 7.70755L17.6559 7.40544L16.9987 7.16414L16.3137 6.98725L15.6045 6.87845C15.3621 6.85369 15.1185 6.84138 14.8748 6.8414ZM14.8748 9.31051C15.0377 9.31051 15.1983 9.31858 15.3565 9.33455L15.823 9.40515L16.2736 9.51996L16.705 9.67667L17.1152 9.87312L17.5009 10.1068L17.8615 10.3756L18.194 10.6772L18.4958 11.0093L18.7649 11.3695L18.9989 11.7558L19.1953 12.1657C19.2543 12.306 19.3067 12.4498 19.3523 12.5968C19.3978 12.7438 19.4361 12.8941 19.4671 13.0471C19.498 13.2001 19.5209 13.3558 19.5377 13.514L19.5617 13.9953C19.5617 14.158 19.5537 14.3185 19.5377 14.4768C19.5217 14.635 19.4982 14.7907 19.4671 14.9436C19.436 15.0966 19.3976 15.2468 19.3523 15.3939L19.1953 15.8251L18.9989 16.235L18.7649 16.6211L18.4958 16.9815L18.194 17.3136L17.8615 17.6151L17.5009 17.884L17.1152 18.1176L16.705 18.3141L16.2736 18.4708L15.823 18.5856L15.3565 18.6561C15.1965 18.6721 15.0357 18.6802 14.8748 18.6801C14.7138 18.6802 14.553 18.6721 14.3929 18.6561L13.9264 18.5856C13.7733 18.5546 13.623 18.5162 13.4758 18.4708L13.0443 18.3141L12.6341 18.1176L12.2484 17.884L11.8878 17.6151L11.5554 17.3136L11.2535 16.9815L10.9844 16.6211L10.7505 16.235L10.554 15.8251L10.3971 15.3939L10.2822 14.9436L10.2116 14.4768C10.1956 14.3168 10.1876 14.1561 10.1876 13.9953C10.1876 13.8346 10.1956 13.6739 10.2116 13.514C10.2275 13.3558 10.2511 13.2 10.2822 13.0471C10.3131 12.8952 10.3514 12.745 10.3972 12.5969L10.5541 12.1658L10.7506 11.7559L10.9845 11.3696L11.2536 11.0094L11.5555 10.6773L11.8879 10.3757L12.2485 10.1069L12.6342 9.87321L13.0444 9.67676C13.1856 9.61747 13.3296 9.56517 13.476 9.52005L13.9266 9.40524C14.0797 9.3742 14.2356 9.35052 14.3931 9.33464C14.5532 9.3186 14.7139 9.31049 14.8748 9.31051Z" fill="#CA0000"/>
<path d="M22.3258 4.80644C22.269 4.80645 22.2121 4.80933 22.1556 4.81505C22.099 4.82077 22.0427 4.82933 21.987 4.84071C21.9313 4.85207 21.8762 4.86623 21.8219 4.88314C21.7676 4.90005 21.7141 4.91969 21.6618 4.94198C21.6094 4.9643 21.5582 4.98923 21.5083 5.0167C21.4584 5.04412 21.4099 5.07402 21.363 5.10631C21.316 5.13864 21.2707 5.17331 21.2272 5.21019C21.1838 5.24703 21.1422 5.28604 21.1026 5.32707C21.063 5.36812 21.0254 5.41114 20.9901 5.45597C20.9547 5.5008 20.9217 5.54738 20.891 5.59554C20.8603 5.64366 20.832 5.6933 20.8062 5.74427C20.7804 5.79527 20.7571 5.84754 20.7365 5.90089C20.7159 5.95422 20.698 6.00856 20.6828 6.06369C20.6676 6.11883 20.6551 6.17469 20.6454 6.23108C20.6358 6.28745 20.6289 6.34427 20.6249 6.40133C20.622 6.44175 20.6206 6.48226 20.6206 6.52278C20.6206 6.58003 20.6234 6.63724 20.6291 6.6942C20.6348 6.75114 20.6433 6.80775 20.6546 6.86383C20.6659 6.9199 20.68 6.97538 20.6968 7.03004C20.7136 7.08472 20.7331 7.13852 20.7552 7.19124C20.7774 7.24397 20.8021 7.29555 20.8294 7.34579C20.8567 7.39602 20.8864 7.44485 20.9185 7.49209C20.9506 7.5393 20.985 7.58487 21.0217 7.62862C21.0583 7.6724 21.097 7.71431 21.1378 7.7542C21.1786 7.79406 21.2214 7.83184 21.2659 7.8674C21.3104 7.90299 21.3567 7.93631 21.4046 7.96724C21.4524 7.99817 21.5018 8.02667 21.5525 8.05263C21.6032 8.07861 21.6551 8.10202 21.708 8.12278C21.761 8.14351 21.815 8.16157 21.8698 8.17687C21.9246 8.19215 21.9801 8.20467 22.0361 8.21437C22.0921 8.22411 22.1486 8.23102 22.2053 8.23509C22.2454 8.23796 22.2856 8.23939 22.3259 8.23939C22.3828 8.23941 22.4396 8.23657 22.4962 8.23087C22.5527 8.22515 22.609 8.21659 22.6647 8.20522C22.7204 8.19385 22.7755 8.17969 22.8298 8.16279C22.8842 8.14587 22.9376 8.12623 22.99 8.10394C23.0423 8.08166 23.0935 8.05675 23.1434 8.02931C23.1933 8.00187 23.2418 7.97193 23.2888 7.93961C23.3357 7.90732 23.381 7.87268 23.4245 7.83583C23.4679 7.79895 23.5096 7.75992 23.5492 7.71886C23.5888 7.6778 23.6263 7.63478 23.6616 7.58996C23.697 7.54512 23.73 7.49854 23.7608 7.45038C23.7915 7.40223 23.8198 7.35256 23.8455 7.30157C23.8713 7.25056 23.8946 7.19829 23.9152 7.14495C23.9358 7.09162 23.9538 7.03728 23.969 6.98214C23.9842 6.92701 23.9966 6.87115 24.0063 6.81476C24.0159 6.75839 24.0228 6.70157 24.0268 6.64451C24.0297 6.60409 24.0311 6.56357 24.0311 6.52305C24.0311 6.46583 24.0283 6.40865 24.0226 6.35172C24.0169 6.29479 24.0084 6.23818 23.9971 6.1821C23.9858 6.12602 23.9718 6.07055 23.955 6.01588C23.9381 5.9612 23.9186 5.90741 23.8965 5.85469C23.8743 5.80196 23.8496 5.75037 23.8223 5.70013C23.795 5.6499 23.7653 5.60107 23.7332 5.55383C23.7011 5.50659 23.6666 5.46099 23.63 5.41722C23.5934 5.37344 23.5546 5.33152 23.5139 5.29164C23.4731 5.25177 23.4304 5.21399 23.3858 5.17843C23.3413 5.14288 23.295 5.10959 23.2471 5.07869C23.1993 5.04775 23.1499 5.01925 23.0992 4.99329C23.0486 4.96731 22.9966 4.9439 22.9437 4.92314C22.8907 4.90241 22.8367 4.88436 22.7819 4.86905C22.7272 4.85374 22.6717 4.8412 22.6156 4.83147C22.5596 4.82176 22.5032 4.81487 22.4465 4.81084C22.4063 4.80797 22.3661 4.80644 22.3258 4.80644Z" fill="#CA0000"/>
<path d="M13.517 0.000260862C12.7382 -0.000994953 12.0432 0.00223385 11.4189 0.0110246L9.74508 0.0558751C9.24921 0.0774033 8.81111 0.105478 8.41786 0.141807C8.22124 0.159926 8.03574 0.180199 7.85992 0.202534C7.69262 0.223621 7.52577 0.248176 7.35948 0.27618C7.20116 0.303091 7.05091 0.332152 6.90685 0.363727C6.76279 0.395302 6.62519 0.429389 6.49243 0.465988C6.36265 0.501775 6.23388 0.54114 6.10627 0.584035C5.98123 0.626194 5.85923 0.670866 5.73876 0.718587C5.49783 0.814028 5.26281 0.921129 5.0208 1.04115C4.83458 1.13354 4.66253 1.2271 4.49909 1.32613C4.33566 1.42516 4.18084 1.52975 4.02924 1.64367C3.87312 1.76156 3.72265 1.88675 3.57831 2.0188C3.42744 2.15622 3.27333 2.30737 3.11321 2.47628C2.91201 2.68734 2.73719 2.88415 2.582 3.07728C2.50441 3.17379 2.43175 3.26923 2.36331 3.36522C2.29563 3.4598 2.23092 3.55649 2.16929 3.65513C2.10829 3.7529 2.05052 3.85247 1.99527 3.95491C1.93915 4.05911 1.88612 4.16495 1.83623 4.27227C1.73415 4.4915 1.63889 4.7276 1.5438 4.99114C1.47326 5.18597 1.4101 5.38339 1.35444 5.58298C1.29766 5.78696 1.24716 6.00036 1.20213 6.23116C1.1571 6.46196 1.11781 6.71017 1.08328 6.98465C1.04606 7.28553 1.01633 7.58729 0.994115 7.88965C0.968999 8.22208 0.948188 8.58788 0.931145 8.99503L0.89078 10.3488L0.869072 11.999L0.862793 13.9937L0.881182 16.8944L0.93859 19.0921L0.982813 19.9505L1.03807 20.6618C1.05578 20.8536 1.07794 21.0448 1.10454 21.2355C1.12876 21.4049 1.15477 21.5531 1.18276 21.6814C1.23954 21.9422 1.30669 22.2006 1.38405 22.456C1.45811 22.7006 1.54281 22.9418 1.6379 23.179C1.73137 23.4113 1.83363 23.6354 1.94486 23.8511C2.05609 24.0667 2.17629 24.2739 2.30545 24.4729C2.43462 24.672 2.57276 24.8629 2.72023 25.0456C2.86753 25.2283 3.02421 25.4033 3.18964 25.5698C3.35532 25.7367 3.53005 25.8954 3.71421 26.0463C3.90055 26.1989 4.09423 26.3423 4.29458 26.476C4.48053 26.6003 4.6645 26.7141 4.84983 26.8186C5.03515 26.9231 5.22209 27.0179 5.41423 27.1042C5.60637 27.1904 5.80335 27.2679 6.00912 27.3377C6.2149 27.4075 6.42928 27.4696 6.65587 27.5247C6.88245 27.5797 7.12231 27.6281 7.37617 27.6703C7.63002 27.7124 7.90137 27.7486 8.19128 27.7797C8.48119 27.8108 8.79048 27.8366 9.12283 27.8581C9.45517 27.8796 9.81039 27.8968 10.1921 27.9107C10.7817 27.932 11.6742 27.9445 12.7034 27.9492L16.0354 27.9425L19.1905 27.8983L20.3902 27.8645L21.1717 27.8244C21.3395 27.8107 21.5036 27.7946 21.662 27.7757C21.8205 27.7567 21.9767 27.7351 22.1289 27.7105C22.281 27.686 22.4297 27.6585 22.5758 27.628C22.7203 27.5979 22.864 27.5643 23.0068 27.5273C23.1481 27.4914 23.2875 27.4506 23.4255 27.4073C23.5634 27.3639 23.7 27.3171 23.8357 27.2669C23.9722 27.2163 24.1074 27.1624 24.2413 27.1053C24.3761 27.0479 24.5108 26.9866 24.6459 26.9214C24.8533 26.8215 25.0204 26.7382 25.167 26.6568C25.305 26.5811 25.4378 26.4965 25.5648 26.4035C25.69 26.3113 25.8145 26.2063 25.958 26.0741C26.1015 25.9419 26.2642 25.7826 26.4655 25.5811C26.6425 25.4042 26.7918 25.2505 26.9205 25.1106C27.0492 24.9708 27.1577 24.8449 27.2528 24.7237C27.3434 24.6086 27.4278 24.4888 27.5057 24.3647C27.5817 24.2436 27.6517 24.1178 27.723 23.9783C27.8303 23.7684 27.9257 23.5741 28.0112 23.3865C28.0942 23.2057 28.17 23.0218 28.2385 22.835C28.3059 22.6497 28.3643 22.4613 28.4135 22.2703C28.4641 22.0739 28.5077 21.8665 28.5453 21.639C28.583 21.4115 28.6149 21.164 28.6425 20.8875C28.6701 20.611 28.6936 20.3055 28.7143 19.9622L28.769 18.8099L28.816 17.3767L28.8495 15.78L28.8624 14.1105L28.8325 10.8315L28.7924 9.36281L28.7377 8.10179L28.6695 7.11867C28.6447 6.84508 28.618 6.62962 28.5897 6.48394C28.5583 6.32298 28.5232 6.16276 28.4845 6.00341C28.4469 5.84836 28.4054 5.69423 28.3603 5.54118C28.3163 5.39207 28.2685 5.24411 28.217 5.09743C28.166 4.95257 28.112 4.81075 28.0555 4.67198C27.999 4.53321 27.9378 4.39768 27.8741 4.26501C27.8104 4.13234 27.7437 4.0029 27.6736 3.87642C27.6036 3.74994 27.5306 3.6266 27.4542 3.50631C27.3779 3.38603 27.2984 3.26879 27.2156 3.15469C27.1333 3.04095 27.0474 2.92982 26.9582 2.82145C26.8694 2.71367 26.7772 2.60873 26.6817 2.50678C26.5864 2.40495 26.4879 2.30617 26.3863 2.21058C26.2847 2.11496 26.18 2.02239 26.072 1.93287C25.9636 1.84305 25.8525 1.75663 25.7387 1.67372C25.6237 1.58997 25.5062 1.50974 25.3863 1.43315C25.2648 1.35546 25.1411 1.28139 25.0152 1.21104C24.8871 1.13952 24.7569 1.07167 24.625 1.0076C24.4059 0.901127 24.2034 0.806673 24.0045 0.722893C23.809 0.639745 23.6097 0.565897 23.4073 0.501599C23.2036 0.437463 22.9917 0.382477 22.7585 0.335025C22.5252 0.287573 22.2709 0.248015 21.9831 0.214377C21.6952 0.180739 21.3738 0.15356 21.0062 0.130955C20.6386 0.108351 20.2252 0.0905885 19.7531 0.0762363L18.1487 0.0403564L16.1182 0.0164064L13.517 0.000260862ZM14.8675 2.46722L18.6172 2.48857L20.0318 2.51584C20.4214 2.52678 20.7187 2.53961 20.893 2.55441C21.1199 2.57351 21.3361 2.59746 21.5428 2.62617C21.7413 2.65357 21.9387 2.68764 22.1349 2.72834C22.3232 2.76781 22.5029 2.81266 22.6749 2.86325C22.8468 2.91384 23.0111 2.97053 23.1687 3.03323C23.3263 3.09593 23.477 3.16491 23.622 3.24044C23.7659 3.3154 23.9057 3.39789 24.0409 3.48757C24.1755 3.57682 24.3052 3.67298 24.4311 3.77658C24.5571 3.88019 24.6791 3.99124 24.7984 4.11C24.9242 4.23531 25.0403 4.36296 25.1473 4.49464C25.2539 4.62551 25.3525 4.76267 25.4427 4.90538C25.5338 5.05013 25.616 5.20037 25.6886 5.35523C25.7629 5.51311 25.8296 5.67995 25.8896 5.85729C25.9495 6.03463 26.0029 6.22309 26.0501 6.42447C26.0996 6.63797 26.1411 6.85325 26.1745 7.06987C26.2103 7.2995 26.241 7.54439 26.267 7.80658C26.293 8.06878 26.3146 8.34838 26.3323 8.64753C26.3465 8.88748 26.3589 9.20413 26.3694 9.57809L26.3957 10.8532L26.4158 13.9766L26.3929 17.097L26.3654 18.3684L26.3277 19.2932C26.3015 19.7262 26.2738 20.0902 26.2408 20.407C26.2242 20.5654 26.2063 20.712 26.1864 20.8495C26.1677 20.9794 26.1456 21.1088 26.1201 21.2375C26.0968 21.355 26.0697 21.4716 26.0389 21.5874C26.0094 21.6978 25.9763 21.8072 25.9394 21.9154C25.9024 22.0241 25.862 22.1317 25.8184 22.238C25.7724 22.3502 25.7238 22.4614 25.6727 22.5714C25.6272 22.6696 25.5794 22.7651 25.5288 22.8582C25.4788 22.9502 25.4256 23.0406 25.3695 23.129C25.3139 23.2167 25.2556 23.3018 25.1946 23.3842C25.1339 23.4664 25.0703 23.5464 25.0039 23.6239C24.9376 23.7012 24.8686 23.776 24.7969 23.8482C24.7252 23.9204 24.6507 23.9901 24.5736 24.0574C24.4964 24.1246 24.4164 24.1892 24.3336 24.2515C24.2508 24.3137 24.1652 24.3735 24.0766 24.4307C23.9881 24.4879 23.8968 24.5428 23.8025 24.5952C23.7082 24.6476 23.611 24.6977 23.511 24.7453C23.4092 24.7936 23.306 24.8389 23.2016 24.8811C23.0936 24.9246 22.9844 24.9652 22.8742 25.0026C22.6499 25.0791 22.4134 25.1462 22.1644 25.204C21.9049 25.2639 21.6429 25.313 21.3793 25.3509C21.2779 25.3657 21.045 25.3796 20.7113 25.3926L19.4397 25.4279L15.8346 25.4747L12.0613 25.4807L10.5794 25.4649L9.61717 25.4349L8.90763 25.385C8.68733 25.3665 8.48245 25.3458 8.29049 25.3224C8.09853 25.299 7.91976 25.2729 7.75157 25.2435C7.59218 25.2159 7.43377 25.183 7.2766 25.1448C7.13329 25.1099 6.99145 25.0693 6.85142 25.023C6.71642 24.9781 6.58734 24.9288 6.46175 24.8745C6.33617 24.8203 6.21418 24.7608 6.09335 24.6959C5.97253 24.6309 5.85295 24.5604 5.73204 24.4835C5.64081 24.4256 5.55263 24.3669 5.46778 24.3048C5.38292 24.2426 5.30093 24.1806 5.222 24.1157C5.14306 24.0507 5.06726 23.9838 4.99415 23.9149C4.92153 23.8464 4.8514 23.7752 4.7839 23.7016C4.71662 23.6282 4.6523 23.5527 4.59059 23.4745C4.52864 23.396 4.4696 23.3152 4.41361 23.2323C4.35679 23.1481 4.30302 23.062 4.25242 22.974C4.20129 22.8852 4.15267 22.7933 4.10647 22.6986C4.0595 22.602 4.01568 22.504 3.97506 22.4046C3.9338 22.3034 3.89469 22.199 3.85791 22.0912C3.78436 21.8755 3.71977 21.6458 3.66362 21.401C3.60747 21.1561 3.55957 20.8959 3.51902 20.6188C3.47848 20.3416 3.44582 20.0477 3.41981 19.7354C3.40062 19.5053 3.38537 19.1469 3.37371 18.6949L3.34931 17.087L3.35828 12.9881L3.42887 9.07137L3.48269 7.69141L3.51319 7.23528C3.52378 7.11346 3.53472 7.02322 3.54593 6.96904C3.58289 6.79081 3.62011 6.62495 3.6586 6.46968C3.69454 6.3232 3.73454 6.17773 3.77853 6.03346C3.82033 5.8973 3.86437 5.76974 3.91146 5.64891C3.95687 5.53187 4.00749 5.41691 4.06315 5.30437C4.11751 5.19494 4.1759 5.09017 4.23932 4.98818C4.30274 4.88619 4.37118 4.78725 4.44581 4.68884C4.52044 4.59044 4.60082 4.4933 4.68827 4.3948C4.77573 4.29631 4.87019 4.19683 4.97263 4.09431C5.09201 3.97424 5.21633 3.85917 5.34524 3.74941C5.46697 3.64584 5.59392 3.54857 5.72558 3.45797C5.85502 3.36826 5.98777 3.28843 6.126 3.21506C6.26423 3.14168 6.40793 3.07539 6.55908 3.01574C6.71023 2.95609 6.869 2.90272 7.03719 2.85428C7.21388 2.80471 7.39254 2.76243 7.5727 2.72753C7.76215 2.69039 7.96335 2.65801 8.17818 2.62976C8.39302 2.6015 8.62158 2.5771 8.86592 2.55593C9.03635 2.54122 9.33004 2.52813 9.71674 2.51709L11.1241 2.48928L14.8681 2.46641L14.8675 2.46722Z" fill="#CA0000"/>
</svg>
