<svg width="28" height="28" viewBox="0 0 28 28" fill="none" xmlns="http://www.w3.org/2000/svg">
<path d="M12.6545 0.0252853C11.8757 0.0240295 11.1807 0.0272583 10.5564 0.036049L8.88253 0.0808995C8.38667 0.102428 7.94857 0.130502 7.55532 0.166831C7.35869 0.184951 7.17319 0.205223 6.99738 0.227559C6.83007 0.248646 6.66322 0.2732 6.49693 0.301205C6.33861 0.328115 6.18836 0.357177 6.0443 0.388751C5.90024 0.420326 5.76264 0.454414 5.62988 0.491012C5.5001 0.526799 5.37133 0.566164 5.24372 0.609059C5.11868 0.651219 4.99668 0.69589 4.87621 0.743611C4.63528 0.839053 4.40026 0.946154 4.15825 1.06617C3.97203 1.15857 3.79998 1.25212 3.63655 1.35115C3.47311 1.45018 3.31829 1.55478 3.16669 1.6687C3.01057 1.78659 2.8601 1.91177 2.71576 2.04383C2.56489 2.18125 2.41078 2.33239 2.25066 2.5013C2.04946 2.71237 1.87464 2.90917 1.71945 3.1023C1.64186 3.19882 1.56921 3.29426 1.50076 3.39024C1.43308 3.48483 1.36837 3.58151 1.30674 3.68015C1.24574 3.77793 1.18798 3.8775 1.13272 3.97993C1.0766 4.08414 1.02357 4.18997 0.97368 4.2973C0.8716 4.51653 0.776338 4.75262 0.681255 5.01616C0.610715 5.21099 0.547551 5.40841 0.491896 5.60801C0.435115 5.81199 0.384613 6.02539 0.339583 6.25619C0.294553 6.48699 0.255264 6.73519 0.220729 7.00968C0.183514 7.31056 0.153784 7.61231 0.131566 7.91467C0.10645 8.2471 0.0856395 8.6129 0.0685963 9.02006L0.0282309 10.3738L0.00652319 12.0241L0.000244141 14.0187L0.0186329 16.9194L0.0760415 19.1171L0.120264 19.9755L0.17552 20.6868C0.193233 20.8786 0.215395 21.0699 0.241989 21.2606C0.266208 21.4299 0.292221 21.5781 0.320208 21.7064C0.376995 21.9672 0.444145 22.2256 0.521497 22.481C0.595561 22.7256 0.680259 22.9668 0.775351 23.204C0.86882 23.4364 0.971079 23.6604 1.08231 23.8761C1.19354 24.0917 1.31374 24.2989 1.44291 24.498C1.57208 24.697 1.71022 24.8879 1.85768 25.0706C2.00499 25.2534 2.16166 25.4283 2.32709 25.5948C2.49277 25.7617 2.66751 25.9205 2.85166 26.0713C3.038 26.2239 3.23168 26.3673 3.43203 26.501C3.61798 26.6253 3.80196 26.7392 3.98728 26.8437C4.1726 26.9482 4.35954 27.043 4.55168 27.1292C4.74382 27.2154 4.9408 27.293 5.14657 27.3628C5.35235 27.4325 5.56673 27.4946 5.79332 27.5497C6.0199 27.6048 6.25976 27.6531 6.51362 27.6953C6.76747 27.7374 7.03882 27.7736 7.32873 27.8047C7.61865 27.8358 7.92793 27.8616 8.26028 27.8831C8.59262 27.9046 8.94784 27.9219 9.32951 27.9357C9.91912 27.957 10.8116 27.9695 11.8409 27.9743L15.1728 27.9675L18.328 27.9233L19.5276 27.8896L20.3092 27.8494C20.4769 27.8358 20.6411 27.8196 20.7995 27.8007C20.9579 27.7817 21.1142 27.7601 21.2663 27.7356C21.4184 27.711 21.5672 27.6835 21.7133 27.653C21.8577 27.6229 22.0014 27.5894 22.1442 27.5523C22.2856 27.5164 22.425 27.4756 22.5629 27.4323C22.7009 27.389 22.8374 27.3421 22.9731 27.2919C23.1096 27.2413 23.2449 27.1875 23.3788 27.1303C23.5136 27.0729 23.6482 27.0116 23.7833 26.9465C23.9908 26.8465 24.1578 26.7632 24.3045 26.6818C24.4424 26.6061 24.5753 26.5215 24.7022 26.4285C24.8274 26.3363 24.9519 26.2314 25.0955 26.0991C25.239 25.9669 25.4016 25.8076 25.603 25.6061C25.78 25.4293 25.9292 25.2755 26.058 25.1357C26.1867 24.9958 26.2951 24.87 26.3902 24.7487C26.4809 24.6336 26.5653 24.5138 26.6432 24.3897C26.7191 24.2686 26.7891 24.1428 26.8604 24.0034C26.9677 23.7935 27.0631 23.5991 27.1486 23.4115C27.2316 23.2308 27.3075 23.0468 27.3759 22.86C27.4434 22.6748 27.5018 22.4863 27.5509 22.2954C27.6015 22.0989 27.6451 21.8915 27.6828 21.664C27.7205 21.4366 27.7523 21.189 27.7799 20.9125C27.8076 20.6361 27.8311 20.3306 27.8517 19.9873L27.9064 18.8349L27.9534 17.4017L27.987 15.805L27.9999 14.1355L27.9699 10.8565L27.9298 9.38783L27.8751 8.12681L27.8069 7.14369C27.7822 6.8701 27.7555 6.65464 27.7271 6.50897C27.6957 6.34801 27.6607 6.18779 27.622 6.02844C27.5843 5.87338 27.5429 5.71926 27.4977 5.56621C27.4537 5.4171 27.406 5.26913 27.3544 5.12246C27.3035 4.97759 27.2495 4.83577 27.1929 4.69701C27.1364 4.55824 27.0753 4.4227 27.0116 4.29003C26.9479 4.15736 26.8811 4.02793 26.8111 3.90145C26.741 3.77497 26.668 3.65163 26.5917 3.53134C26.5153 3.41105 26.4359 3.29381 26.3531 3.17971C26.2708 3.06598 26.1849 2.95484 26.0956 2.84647C26.0068 2.7387 25.9146 2.63375 25.8192 2.5318C25.7239 2.42998 25.6254 2.3312 25.5238 2.23561C25.4222 2.13999 25.3175 2.04741 25.2095 1.95789C25.1011 1.86808 24.9899 1.78165 24.8761 1.69875C24.7612 1.61499 24.6437 1.53477 24.5238 1.45817C24.4023 1.38048 24.2785 1.30642 24.1526 1.23607C24.0245 1.16454 23.8944 1.0967 23.7624 1.03263C23.5434 0.926151 23.3408 0.831698 23.142 0.747917C22.9465 0.664769 22.7472 0.590921 22.5447 0.526624C22.3411 0.462487 22.1291 0.407501 21.8959 0.360049C21.6627 0.312597 21.4084 0.273039 21.1205 0.239401C20.8327 0.205763 20.5113 0.178584 20.1437 0.15598C19.7761 0.133375 19.3627 0.115613 18.8906 0.101261L17.2862 0.0653808L15.2556 0.0414308L12.6554 0.0254632L12.6545 0.0252853ZM14.0049 2.49224L17.7547 2.51359L19.1693 2.54086C19.5588 2.5518 19.8561 2.56463 20.0304 2.57943C20.2573 2.59854 20.4735 2.62249 20.6803 2.65119C20.8787 2.67859 21.0762 2.71267 21.2723 2.75336C21.4607 2.79283 21.6404 2.83768 21.8123 2.88827C21.9843 2.93886 22.1485 2.99555 22.3061 3.05826C22.4637 3.12096 22.6144 3.18994 22.7595 3.26547C22.9033 3.34042 23.0432 3.42291 23.1784 3.51259C23.3129 3.60184 23.4426 3.698 23.5686 3.80161C23.6945 3.90521 23.8166 4.01626 23.9358 4.13503C24.0617 4.26034 24.1777 4.38798 24.2847 4.51967C24.3914 4.65053 24.49 4.78769 24.5801 4.93041C24.6713 5.07515 24.7534 5.22539 24.8261 5.38026C24.9004 5.53813 24.9671 5.70498 25.027 5.88231C25.0869 6.05965 25.1403 6.24812 25.1876 6.44949C25.2371 6.66299 25.2786 6.87828 25.3119 7.09489C25.3478 7.32453 25.3785 7.56941 25.4045 7.83161C25.4305 8.0938 25.452 8.3734 25.4698 8.67255C25.484 8.91251 25.4963 9.22915 25.5068 9.60312L25.5331 10.8782L25.5532 14.0016L25.5303 17.122L25.5029 18.3935L25.4651 19.3182C25.4389 19.7512 25.4113 20.1152 25.3783 20.432C25.3617 20.5904 25.3438 20.737 25.3238 20.8745C25.3052 21.0044 25.2831 21.1338 25.2576 21.2625C25.2342 21.38 25.2072 21.4967 25.1764 21.6124C25.1469 21.7228 25.1137 21.8322 25.0769 21.9404C25.0398 22.0491 24.9994 22.1567 24.9559 22.263C24.9098 22.3752 24.8612 22.4864 24.8101 22.5964C24.7646 22.6946 24.7168 22.7902 24.6662 22.8832C24.6162 22.9753 24.5631 23.0656 24.5069 23.1541C24.4513 23.2417 24.393 23.3268 24.332 23.4093C24.2714 23.4914 24.2077 23.5714 24.1413 23.649C24.0751 23.7262 24.0061 23.801 23.9344 23.8732C23.8626 23.9454 23.7882 24.0151 23.711 24.0824C23.6339 24.1497 23.5539 24.2143 23.4711 24.2765C23.3883 24.3388 23.3026 24.3985 23.2141 24.4557C23.1255 24.513 23.0342 24.5679 22.9399 24.6202C22.8457 24.6726 22.7484 24.7227 22.6484 24.7703C22.5467 24.8187 22.4435 24.8639 22.339 24.9061C22.2311 24.9497 22.1219 24.9902 22.0116 25.0277C21.7874 25.1041 21.5508 25.1712 21.3018 25.229C21.0423 25.289 20.7804 25.338 20.5168 25.376C20.4154 25.3908 20.1824 25.4047 19.8488 25.4176L18.5772 25.4529L14.9721 25.4998L11.1987 25.5057L9.71684 25.4899L8.75462 25.4599L8.04508 25.4101C7.82478 25.3915 7.6199 25.3709 7.42794 25.3474C7.23598 25.324 7.05721 25.2979 6.88902 25.2685C6.72963 25.2409 6.57122 25.208 6.41405 25.1698C6.27074 25.135 6.1289 25.0943 5.98887 25.048C5.85387 25.0032 5.72479 24.9538 5.59921 24.8996C5.47362 24.8453 5.35163 24.7858 5.2308 24.7209C5.10998 24.6559 4.9904 24.5854 4.86949 24.5086C4.77826 24.4506 4.69009 24.3919 4.60523 24.3298C4.52037 24.2676 4.43838 24.2056 4.35945 24.1407C4.28051 24.0758 4.20471 24.0088 4.13161 23.9399C4.05899 23.8714 3.98885 23.8002 3.92135 23.7266C3.85407 23.6533 3.78976 23.5777 3.72804 23.4995C3.66609 23.421 3.60705 23.3402 3.55106 23.2573C3.49424 23.1732 3.44047 23.087 3.38987 22.999C3.33874 22.9102 3.29012 22.8183 3.24392 22.7236C3.19695 22.6271 3.15313 22.529 3.11251 22.4296C3.07125 22.3285 3.03214 22.2241 2.99536 22.1162C2.92181 21.9005 2.85722 21.6709 2.80107 21.426C2.74492 21.1811 2.69702 20.921 2.65647 20.6438C2.61593 20.3666 2.58328 20.0728 2.55726 19.7604C2.53807 19.5303 2.52282 19.172 2.51116 18.7199L2.48676 17.112L2.49573 13.0131L2.56632 9.09639L2.62014 7.71643L2.65064 7.2603C2.66123 7.13849 2.67217 7.04825 2.68338 6.99407C2.72034 6.81583 2.75757 6.64998 2.79605 6.4947C2.83199 6.34822 2.87199 6.20276 2.91598 6.05849C2.95778 5.92232 3.00182 5.79477 3.04891 5.67394C3.09432 5.55689 3.14494 5.44193 3.2006 5.3294C3.25496 5.21996 3.31335 5.11519 3.37677 5.0132C3.44019 4.91121 3.50863 4.81227 3.58326 4.71387C3.65789 4.61547 3.73827 4.51832 3.82573 4.41983C3.91318 4.32134 4.00764 4.22186 4.11008 4.11933C4.22946 3.99926 4.35378 3.8842 4.4827 3.77443C4.60443 3.67087 4.73137 3.57359 4.86303 3.48299C4.99247 3.39329 5.12523 3.31346 5.26345 3.24008C5.40168 3.1667 5.54538 3.10042 5.69653 3.04076C5.84768 2.98111 6.00645 2.92774 6.17464 2.8793C6.35133 2.82974 6.52999 2.78745 6.71015 2.75256C6.8996 2.71542 7.1008 2.68304 7.31564 2.65478C7.53047 2.62652 7.75903 2.60213 8.00337 2.58096C8.17381 2.56625 8.46749 2.55315 8.85419 2.54212L10.2616 2.51431L14.0055 2.49143L14.0049 2.49224Z" fill="white"/>
</svg>
