<svg width="34" height="28" viewBox="0 0 34 28" fill="none" xmlns="http://www.w3.org/2000/svg">
<path d="M30.3265 7.03985C30.3471 7.33769 30.3471 7.63553 30.3471 7.93612C30.3471 17.0951 23.3745 27.6583 10.6249 27.6583V27.6528C6.85863 27.6583 3.17059 26.5795 0 24.5453C0.547647 24.6112 1.09804 24.6442 1.6498 24.6455C4.77098 24.6483 7.80294 23.601 10.2584 21.6726C7.29235 21.6163 4.69137 19.6824 3.78274 16.8591C4.82176 17.0595 5.89235 17.0183 6.91216 16.7397C3.67843 16.0863 1.35196 13.2451 1.35196 9.94553C1.35196 9.91534 1.35196 9.88652 1.35196 9.85769C2.31549 10.3944 3.39431 10.6922 4.49784 10.7251C1.45216 8.68965 0.513333 4.63789 2.35255 1.47004C5.87176 5.80044 11.0641 8.43299 16.638 8.71161C16.0794 6.30416 16.8425 3.78142 18.6433 2.08906C21.4351 -0.53525 25.8259 -0.40074 28.4502 2.38965C30.0025 2.08357 31.4904 1.51397 32.852 0.706907C32.3345 2.31142 31.2516 3.67436 29.8049 4.54044C31.1788 4.37848 32.5212 4.01063 33.7853 3.44926C32.8547 4.84377 31.6825 6.05848 30.3265 7.03985Z" fill="#CA0000"/>
</svg>
