<svg width="34" height="28" viewBox="0 0 34 28" fill="none" xmlns="http://www.w3.org/2000/svg">
<path d="M30.4637 7.03979C30.4843 7.33763 30.4843 7.63547 30.4843 7.93606C30.4843 17.0951 23.5117 27.6582 10.7621 27.6582V27.6527C6.99583 27.6582 3.3078 26.5794 0.137207 24.5453C0.684854 24.6112 1.23525 24.6441 1.78701 24.6455C4.90819 24.6482 7.94015 23.601 10.3956 21.6725C7.42956 21.6163 4.82858 19.6823 3.91995 16.859C4.95897 17.0594 6.02956 17.0182 7.04936 16.7396C3.81564 16.0863 1.48917 13.2451 1.48917 9.94547C1.48917 9.91528 1.48917 9.88645 1.48917 9.85763C2.4527 10.3943 3.53152 10.6921 4.63505 10.7251C1.58936 8.68959 0.65054 4.63783 2.48976 1.46998C6.00897 5.80038 11.2013 8.43293 16.7752 8.71155C16.2166 6.3041 16.9798 3.78136 18.7805 2.089C21.5723 -0.535311 25.9631 -0.400801 28.5874 2.38959C30.1398 2.08351 31.6276 1.5139 32.9892 0.706846C32.4717 2.31136 31.3888 3.6743 29.9421 4.54038C31.316 4.37842 32.6584 4.01057 33.9225 3.4492C32.9919 4.84371 31.8198 6.05841 30.4637 7.03979Z" fill="white"/>
</svg>
